# xmcd
#
# Track frame offsets: 
#        150
#        13238
#        26820
#        42110
#        52030
#        65983
#        81400
#        96443
#        109508
#        123643
#
# Disc length: 1841 seconds
#
# Revision: 2
# Processed by: cddbd v1.5.2PL0 Copyright (c) Steve Scherf et al.
# Submitted via: ExactAudioCopy v1.0b3
#
DISCID=91072f0a
DTITLE=Tim McGraw - Tim McGraw
DYEAR=1993
DGENRE=Country
TTITLE0=Welcome To The Club
TTITLE1=Two Steppin' Mind
TTITLE2=The Only thing That I Have Left
TTITLE3=You Can Take It With You (When You Go)
TTITLE4=Ain't No Angel
TTITLE5=Memory Lane
TTITLE6=Tears In The Rain
TTITLE7=What She Left Behind
TTITLE8=What Room Was The Holiday In
TTITLE9=I Keep It Under My Hat
EXTD=\nYEAR: 1993  ID3G:   2
EXTT0=
EXTT1=
EXTT2=
EXTT3=
EXTT4=
EXTT5=
EXTT6=
EXTT7=
EXTT8=
EXTT9=
PLAYORDER=
